<svg id="svg" version="1.1" xmlns="http://www.w3.org/2000/svg" xmlns:xlink="http://www.w3.org/1999/xlink" width="400" height="400" viewBox="0, 0, 400,400"><g id="svgg"><path id="path0" d="M188.867 98.100 C 188.649 98.815,188.361 103.360,188.226 108.200 C 188.091 113.040,187.810 118.530,187.602 120.400 C 187.394 122.270,187.029 130.280,186.792 138.200 C 186.555 146.120,186.198 153.770,185.999 155.200 C 185.800 156.630,185.442 163.290,185.203 170.000 C 184.713 183.746,184.664 184.188,183.683 183.809 C 183.307 183.663,182.190 183.390,181.200 183.201 C 180.210 183.012,178.860 182.576,178.200 182.231 C 177.540 181.887,176.730 181.596,176.400 181.585 C 176.070 181.574,175.080 181.288,174.200 180.949 C 173.320 180.610,171.520 180.007,170.200 179.608 C 168.880 179.209,167.170 178.661,166.400 178.390 C 164.882 177.855,160.984 176.514,157.800 175.432 C 156.700 175.058,154.858 174.517,153.706 174.230 C 152.554 173.943,151.384 173.520,151.106 173.290 C 150.828 173.060,149.880 172.741,149.000 172.582 C 148.120 172.422,146.732 171.956,145.916 171.546 C 145.100 171.136,144.053 170.800,143.590 170.800 C 143.127 170.800,141.905 170.457,140.874 170.038 C 138.853 169.217,136.393 168.373,132.600 167.200 C 128.807 166.027,126.347 165.183,124.326 164.362 C 123.295 163.943,122.118 163.600,121.710 163.600 C 121.303 163.600,120.263 163.240,119.400 162.800 C 118.537 162.360,117.464 161.996,117.015 161.991 C 116.567 161.986,115.390 161.615,114.400 161.165 C 111.826 159.996,107.705 159.176,107.289 159.750 C 106.821 160.397,105.286 164.388,104.962 165.800 C 104.810 166.460,104.352 167.668,103.943 168.484 C 103.534 169.300,103.200 170.330,103.200 170.773 C 103.200 171.216,102.852 172.348,102.427 173.289 C 101.472 175.402,100.400 178.896,100.400 179.896 C 100.400 180.608,102.388 181.749,105.800 182.995 C 107.055 183.454,109.095 184.353,111.800 185.641 C 112.680 186.060,113.562 186.402,113.760 186.401 C 114.086 186.400,115.503 187.026,120.200 189.246 C 121.080 189.662,121.962 190.002,122.160 190.001 C 122.358 190.000,123.528 190.472,124.760 191.050 C 125.992 191.627,127.720 192.415,128.600 192.800 C 129.480 193.185,131.208 193.973,132.440 194.550 C 133.672 195.128,134.896 195.600,135.161 195.600 C 135.425 195.600,136.307 195.944,137.121 196.365 C 137.934 196.786,139.680 197.608,141.000 198.191 C 142.320 198.774,144.066 199.600,144.879 200.026 C 145.693 200.452,146.559 200.800,146.804 200.800 C 147.197 200.800,149.070 201.584,153.000 203.395 C 153.660 203.699,155.550 204.503,157.200 205.181 C 158.850 205.858,160.866 206.770,161.679 207.207 C 162.493 207.643,163.455 208.000,163.817 208.000 C 164.180 208.000,164.954 208.334,165.538 208.742 C 166.122 209.150,167.139 209.614,167.798 209.774 C 168.457 209.934,169.245 210.275,169.549 210.532 C 169.853 210.789,170.934 211.270,171.951 211.600 C 174.022 212.272,174.674 213.841,173.420 215.138 C 172.742 215.839,167.407 223.974,163.392 230.430 C 163.176 230.777,162.100 232.372,161.000 233.975 C 159.900 235.578,158.280 238.021,157.400 239.404 C 156.520 240.787,155.035 243.062,154.101 244.460 C 151.789 247.917,151.620 248.175,145.527 257.600 C 144.461 259.250,143.392 260.886,143.153 261.235 C 142.158 262.685,137.167 270.309,136.595 271.251 C 136.378 271.610,134.957 273.770,133.437 276.051 C 130.657 280.226,127.142 285.630,125.839 287.734 C 124.965 289.145,125.329 289.634,129.200 292.257 C 132.430 294.446,135.944 296.932,137.000 297.776 C 144.479 303.751,144.562 303.737,150.200 295.592 C 151.080 294.321,153.158 291.508,154.818 289.340 C 156.478 287.173,158.718 284.230,159.795 282.800 C 160.873 281.370,162.266 279.570,162.891 278.800 C 164.311 277.051,164.331 277.024,166.003 274.600 C 166.762 273.500,168.127 271.700,169.035 270.600 C 169.943 269.500,171.207 267.854,171.843 266.943 C 173.520 264.539,180.106 255.870,180.612 255.400 C 180.848 255.180,181.569 254.190,182.213 253.200 C 182.857 252.210,184.383 250.140,185.604 248.600 C 186.825 247.060,188.089 245.413,188.412 244.940 C 189.043 244.017,193.547 237.980,194.701 236.509 C 195.085 236.020,195.709 235.210,196.086 234.709 C 197.868 232.348,199.732 230.200,200.000 230.200 C 200.263 230.200,202.139 232.355,203.830 234.600 C 204.162 235.040,205.873 237.290,207.633 239.600 C 209.392 241.910,211.134 244.250,211.502 244.800 C 211.870 245.350,213.172 247.060,214.394 248.600 C 215.616 250.140,217.143 252.210,217.787 253.200 C 218.431 254.190,219.152 255.180,219.388 255.400 C 219.894 255.870,226.480 264.539,228.157 266.943 C 228.793 267.854,230.057 269.500,230.965 270.600 C 231.873 271.700,233.238 273.500,233.997 274.600 C 235.669 277.024,235.689 277.051,237.109 278.800 C 237.734 279.570,239.127 281.370,240.205 282.800 C 241.282 284.230,243.522 287.173,245.182 289.340 C 246.842 291.508,248.920 294.321,249.800 295.592 C 255.314 303.558,256.272 303.731,262.803 297.935 C 263.135 297.641,264.461 296.680,265.750 295.800 C 267.039 294.920,268.657 293.794,269.347 293.299 C 270.036 292.803,271.230 291.971,272.000 291.450 C 275.001 289.421,275.074 289.158,273.376 286.526 C 272.550 285.247,271.120 283.030,270.199 281.600 C 269.278 280.170,267.461 277.406,266.162 275.457 C 264.863 273.508,263.622 271.618,263.405 271.257 C 262.857 270.346,257.888 262.753,256.847 261.235 C 256.608 260.886,255.509 259.205,254.406 257.500 C 253.303 255.795,251.497 253.005,250.394 251.300 C 247.988 247.582,248.035 247.653,245.899 244.460 C 244.965 243.062,243.480 240.789,242.600 239.409 C 241.720 238.028,240.100 235.592,239.000 233.997 C 237.900 232.401,236.824 230.804,236.608 230.448 C 233.810 225.825,226.820 215.260,226.380 214.988 C 225.489 214.437,225.975 212.392,227.100 211.963 C 227.705 211.733,229.055 211.107,230.100 210.572 C 231.145 210.037,232.287 209.600,232.637 209.600 C 232.987 209.600,233.731 209.240,234.291 208.800 C 234.850 208.360,235.579 208.000,235.910 208.000 C 236.241 208.000,237.252 207.649,238.156 207.220 C 240.951 205.893,245.514 204.000,245.918 204.000 C 246.129 204.000,246.526 203.730,246.800 203.400 C 247.074 203.070,247.609 202.800,247.989 202.800 C 248.370 202.800,249.527 202.350,250.562 201.800 C 251.596 201.250,252.624 200.800,252.846 200.800 C 253.310 200.800,257.096 199.143,259.279 197.985 C 260.093 197.553,260.975 197.200,261.239 197.200 C 261.504 197.200,262.728 196.733,263.960 196.162 C 265.192 195.592,267.010 194.775,268.000 194.347 C 268.990 193.919,270.466 193.216,271.279 192.785 C 272.093 192.353,272.959 192.000,273.204 192.000 C 273.687 192.000,277.343 190.419,279.600 189.235 C 280.370 188.831,281.573 188.376,282.272 188.224 C 282.972 188.073,283.759 187.690,284.021 187.374 C 284.283 187.058,284.779 186.800,285.123 186.800 C 285.466 186.800,286.479 186.457,287.374 186.038 C 290.785 184.440,293.043 183.437,294.200 183.005 C 297.708 181.696,299.600 180.606,299.600 179.896 C 299.600 178.896,298.528 175.402,297.573 173.289 C 297.148 172.348,296.800 171.216,296.800 170.773 C 296.800 170.330,296.466 169.300,296.057 168.484 C 295.648 167.668,295.190 166.460,295.038 165.800 C 294.714 164.388,293.179 160.397,292.711 159.750 C 292.321 159.212,287.507 160.107,286.205 160.960 C 285.756 161.254,284.581 161.685,283.594 161.918 C 281.875 162.323,280.170 162.868,275.800 164.409 C 272.737 165.489,270.039 166.384,267.400 167.195 C 266.080 167.601,264.280 168.210,263.400 168.549 C 262.520 168.888,261.523 169.173,261.185 169.182 C 260.846 169.192,259.863 169.560,259.000 170.000 C 258.137 170.440,257.012 170.800,256.499 170.800 C 255.987 170.800,254.900 171.136,254.084 171.546 C 253.268 171.956,251.927 172.414,251.106 172.563 C 250.284 172.712,248.844 173.183,247.906 173.608 C 246.967 174.034,245.840 174.392,245.400 174.405 C 244.960 174.417,243.880 174.775,243.000 175.200 C 242.120 175.625,241.080 175.979,240.688 175.986 C 240.296 175.994,238.907 176.450,237.600 177.000 C 236.293 177.550,234.904 178.006,234.512 178.014 C 234.120 178.021,233.080 178.375,232.200 178.800 C 231.320 179.225,230.147 179.579,229.594 179.586 C 229.041 179.594,227.940 179.947,227.148 180.372 C 226.356 180.796,225.009 181.266,224.154 181.417 C 223.299 181.567,222.194 181.944,221.698 182.256 C 221.201 182.567,219.941 182.984,218.898 183.183 C 217.854 183.382,216.693 183.663,216.317 183.809 C 215.341 184.186,215.288 183.727,214.813 170.600 C 214.582 164.220,214.220 157.470,214.009 155.600 C 213.798 153.730,213.435 145.810,213.201 138.000 C 212.967 130.190,212.604 122.270,212.393 120.400 C 212.182 118.530,211.902 113.040,211.770 108.200 C 211.638 103.360,211.352 98.815,211.134 98.100 L 210.738 96.800 200.000 96.800 L 189.262 96.800 188.867 98.100 " stroke="none" fill="#f8f863" fill-rule="evenodd"></path><path id="path1" d="M0.000 200.000 L 0.000 400.000 200.000 400.000 L 400.000 400.000 400.000 200.000 L 400.000 0.000 200.000 0.000 L 0.000 0.000 0.000 200.000 M211.134 98.100 C 211.352 98.815,211.638 103.360,211.770 108.200 C 211.902 113.040,212.182 118.530,212.393 120.400 C 212.604 122.270,212.967 130.190,213.201 138.000 C 213.435 145.810,213.798 153.730,214.009 155.600 C 214.220 157.470,214.582 164.220,214.813 170.600 C 215.288 183.727,215.341 184.186,216.317 183.809 C 216.693 183.663,217.854 183.382,218.898 183.183 C 219.941 182.984,221.201 182.567,221.698 182.256 C 222.194 181.944,223.299 181.567,224.154 181.417 C 225.009 181.266,226.356 180.796,227.148 180.372 C 227.940 179.947,229.041 179.594,229.594 179.586 C 230.147 179.579,231.320 179.225,232.200 178.800 C 233.080 178.375,234.120 178.021,234.512 178.014 C 234.904 178.006,236.293 177.550,237.600 177.000 C 238.907 176.450,240.296 175.994,240.688 175.986 C 241.080 175.979,242.120 175.625,243.000 175.200 C 243.880 174.775,244.960 174.417,245.400 174.405 C 245.840 174.392,246.967 174.034,247.906 173.608 C 248.844 173.183,250.284 172.712,251.106 172.563 C 251.927 172.414,253.268 171.956,254.084 171.546 C 254.900 171.136,255.987 170.800,256.499 170.800 C 257.012 170.800,258.137 170.440,259.000 170.000 C 259.863 169.560,260.846 169.192,261.185 169.182 C 261.523 169.173,262.520 168.888,263.400 168.549 C 264.280 168.210,266.080 167.601,267.400 167.195 C 270.039 166.384,272.737 165.489,275.800 164.409 C 280.170 162.868,281.875 162.323,283.594 161.918 C 284.581 161.685,285.756 161.254,286.205 160.960 C 287.507 160.107,292.321 159.212,292.711 159.750 C 293.179 160.397,294.714 164.388,295.038 165.800 C 295.190 166.460,295.648 167.668,296.057 168.484 C 296.466 169.300,296.800 170.330,296.800 170.773 C 296.800 171.216,297.148 172.348,297.573 173.289 C 298.528 175.402,299.600 178.896,299.600 179.896 C 299.600 180.606,297.708 181.696,294.200 183.005 C 293.043 183.437,290.785 184.440,287.374 186.038 C 286.479 186.457,285.466 186.800,285.123 186.800 C 284.779 186.800,284.283 187.058,284.021 187.374 C 283.759 187.690,282.972 188.073,282.272 188.224 C 281.573 188.376,280.370 188.831,279.600 189.235 C 277.343 190.419,273.687 192.000,273.204 192.000 C 272.959 192.000,272.093 192.353,271.279 192.785 C 270.466 193.216,268.990 193.919,268.000 194.347 C 267.010 194.775,265.192 195.592,263.960 196.162 C 262.728 196.733,261.504 197.200,261.239 197.200 C 260.975 197.200,260.093 197.553,259.279 197.985 C 257.096 199.143,253.310 200.800,252.846 200.800 C 252.624 200.800,251.596 201.250,250.562 201.800 C 249.527 202.350,248.370 202.800,247.989 202.800 C 247.609 202.800,247.074 203.070,246.800 203.400 C 246.526 203.730,246.129 204.000,245.918 204.000 C 245.514 204.000,240.951 205.893,238.156 207.220 C 237.252 207.649,236.241 208.000,235.910 208.000 C 235.579 208.000,234.850 208.360,234.291 208.800 C 233.731 209.240,232.987 209.600,232.637 209.600 C 232.287 209.600,231.145 210.037,230.100 210.572 C 229.055 211.107,227.705 211.733,227.100 211.963 C 225.975 212.392,225.489 214.437,226.380 214.988 C 226.820 215.260,233.810 225.825,236.608 230.448 C 236.824 230.804,237.900 232.401,239.000 233.997 C 240.100 235.592,241.720 238.028,242.600 239.409 C 243.480 240.789,244.965 243.062,245.899 244.460 C 248.035 247.653,247.988 247.582,250.394 251.300 C 251.497 253.005,253.303 255.795,254.406 257.500 C 255.509 259.205,256.608 260.886,256.847 261.235 C 257.888 262.753,262.857 270.346,263.405 271.257 C 263.622 271.618,264.863 273.508,266.162 275.457 C 267.461 277.406,269.278 280.170,270.199 281.600 C 271.120 283.030,272.550 285.247,273.376 286.526 C 275.074 289.158,275.001 289.421,272.000 291.450 C 271.230 291.971,270.036 292.803,269.347 293.299 C 268.657 293.794,267.039 294.920,265.750 295.800 C 264.461 296.680,263.135 297.641,262.803 297.935 C 256.272 303.731,255.314 303.558,249.800 295.592 C 248.920 294.321,246.842 291.508,245.182 289.340 C 243.522 287.173,241.282 284.230,240.205 282.800 C 239.127 281.370,237.734 279.570,237.109 278.800 C 235.689 277.051,235.669 277.024,233.997 274.600 C 233.238 273.500,231.873 271.700,230.965 270.600 C 230.057 269.500,228.793 267.854,228.157 266.943 C 226.480 264.539,219.894 255.870,219.388 255.400 C 219.152 255.180,218.431 254.190,217.787 253.200 C 217.143 252.210,215.616 250.140,214.394 248.600 C 213.172 247.060,211.870 245.350,211.502 244.800 C 211.134 244.250,209.392 241.910,207.633 239.600 C 205.873 237.290,204.162 235.040,203.830 234.600 C 202.139 232.355,200.263 230.200,200.000 230.200 C 199.732 230.200,197.868 232.348,196.086 234.709 C 195.709 235.210,195.085 236.020,194.701 236.509 C 193.547 237.980,189.043 244.017,188.412 244.940 C 188.089 245.413,186.825 247.060,185.604 248.600 C 184.383 250.140,182.857 252.210,182.213 253.200 C 181.569 254.190,180.848 255.180,180.612 255.400 C 180.106 255.870,173.520 264.539,171.843 266.943 C 171.207 267.854,169.943 269.500,169.035 270.600 C 168.127 271.700,166.762 273.500,166.003 274.600 C 164.331 277.024,164.311 277.051,162.891 278.800 C 162.266 279.570,160.873 281.370,159.795 282.800 C 158.718 284.230,156.478 287.173,154.818 289.340 C 153.158 291.508,151.080 294.321,150.200 295.592 C 144.562 303.737,144.479 303.751,137.000 297.776 C 135.944 296.932,132.430 294.446,129.200 292.257 C 125.329 289.634,124.965 289.145,125.839 287.734 C 127.142 285.630,130.657 280.226,133.437 276.051 C 134.957 273.770,136.378 271.610,136.595 271.251 C 137.167 270.309,142.158 262.685,143.153 261.235 C 143.392 260.886,144.461 259.250,145.527 257.600 C 151.620 248.175,151.789 247.917,154.101 244.460 C 155.035 243.062,156.520 240.787,157.400 239.404 C 158.280 238.021,159.900 235.578,161.000 233.975 C 162.100 232.372,163.176 230.777,163.392 230.430 C 167.407 223.974,172.742 215.839,173.420 215.138 C 174.674 213.841,174.022 212.272,171.951 211.600 C 170.934 211.270,169.853 210.789,169.549 210.532 C 169.245 210.275,168.457 209.934,167.798 209.774 C 167.139 209.614,166.122 209.150,165.538 208.742 C 164.954 208.334,164.180 208.000,163.817 208.000 C 163.455 208.000,162.493 207.643,161.679 207.207 C 160.866 206.770,158.850 205.858,157.200 205.181 C 155.550 204.503,153.660 203.699,153.000 203.395 C 149.070 201.584,147.197 200.800,146.804 200.800 C 146.559 200.800,145.693 200.452,144.879 200.026 C 144.066 199.600,142.320 198.774,141.000 198.191 C 139.680 197.608,137.934 196.786,137.121 196.365 C 136.307 195.944,135.425 195.600,135.161 195.600 C 134.896 195.600,133.672 195.128,132.440 194.550 C 131.208 193.973,129.480 193.185,128.600 192.800 C 127.720 192.415,125.992 191.627,124.760 191.050 C 123.528 190.472,122.358 190.000,122.160 190.001 C 121.962 190.002,121.080 189.662,120.200 189.246 C 115.503 187.026,114.086 186.400,113.760 186.401 C 113.562 186.402,112.680 186.060,111.800 185.641 C 109.095 184.353,107.055 183.454,105.800 182.995 C 102.388 181.749,100.400 180.608,100.400 179.896 C 100.400 178.896,101.472 175.402,102.427 173.289 C 102.852 172.348,103.200 171.216,103.200 170.773 C 103.200 170.330,103.534 169.300,103.943 168.484 C 104.352 167.668,104.810 166.460,104.962 165.800 C 105.286 164.388,106.821 160.397,107.289 159.750 C 107.705 159.176,111.826 159.996,114.400 161.165 C 115.390 161.615,116.567 161.986,117.015 161.991 C 117.464 161.996,118.537 162.360,119.400 162.800 C 120.263 163.240,121.303 163.600,121.710 163.600 C 122.118 163.600,123.295 163.943,124.326 164.362 C 126.347 165.183,128.807 166.027,132.600 167.200 C 136.393 168.373,138.853 169.217,140.874 170.038 C 141.905 170.457,143.127 170.800,143.590 170.800 C 144.053 170.800,145.100 171.136,145.916 171.546 C 146.732 171.956,148.120 172.422,149.000 172.582 C 149.880 172.741,150.828 173.060,151.106 173.290 C 151.384 173.520,152.554 173.943,153.706 174.230 C 154.858 174.517,156.700 175.058,157.800 175.432 C 160.984 176.514,164.882 177.855,166.400 178.390 C 167.170 178.661,168.880 179.209,170.200 179.608 C 171.520 180.007,173.320 180.610,174.200 180.949 C 175.080 181.288,176.070 181.574,176.400 181.585 C 176.730 181.596,177.540 181.887,178.200 182.231 C 178.860 182.576,180.210 183.012,181.200 183.201 C 182.190 183.390,183.307 183.663,183.683 183.809 C 184.664 184.188,184.713 183.746,185.203 170.000 C 185.442 163.290,185.800 156.630,185.999 155.200 C 186.198 153.770,186.555 146.120,186.792 138.200 C 187.029 130.280,187.394 122.270,187.602 120.400 C 187.810 118.530,188.091 113.040,188.226 108.200 C 188.361 103.360,188.649 98.815,188.867 98.100 L 189.262 96.800 200.000 96.800 L 210.738 96.800 211.134 98.100 " stroke="none" fill="#0c0c24" fill-rule="evenodd"></path></g></svg>